<svg width="52" height="52" xmlns="http://www.w3.org/2000/svg" xmlns:xlink="http://www.w3.org/1999/xlink" overflow="hidden"><defs><clipPath id="clip0"><rect x="0" y="0" width="52" height="52"/></clipPath></defs><g clip-path="url(#clip0)"><path d="M5.41667 11.375 5.41667 40.625 46.5833 40.625 46.5833 11.375ZM27.1494 30.043C26.5135 30.6751 25.4865 30.6751 24.8506 30.043L7.27513 12.4675C7.27301 12.4654 7.27307 12.462 7.27518 12.4599 7.27621 12.4589 7.27751 12.4583 7.27892 12.4583L44.7211 12.4583C44.7241 12.4584 44.7264 12.4608 44.7264 12.4638 44.7264 12.4652 44.7259 12.4666 44.7249 12.4675ZM19.2757 26 6.50921 38.7665C6.5071 38.7687 6.50363 38.7686 6.50157 38.7665 6.5006 38.7655 6.5 38.7642 6.5 38.7627L6.5 13.2373C6.50005 13.2343 6.50249 13.2319 6.50547 13.2319 6.50688 13.2319 6.50823 13.2325 6.50921 13.2335ZM20.0417 26.7659 24.0847 30.8089C25.1422 31.8667 26.857 31.867 27.9148 30.8094 27.915 30.8092 27.9152 30.8091 27.9153 30.8089L31.9583 26.7659 44.7249 39.5325C44.727 39.5346 44.7269 39.538 44.7248 39.5401 44.7238 39.5411 44.7225 39.5417 44.7211 39.5417L7.27892 39.5417C7.27594 39.5416 7.27355 39.5392 7.27355 39.5362 7.27361 39.5348 7.27415 39.5334 7.27513 39.5325ZM32.7243 26 45.4908 13.2335C45.4929 13.2313 45.4964 13.2314 45.4984 13.2335 45.4994 13.2345 45.5 13.2358 45.5 13.2373L45.5 38.7627C45.4999 38.7657 45.4975 38.7681 45.4945 38.7681 45.4931 38.7681 45.4918 38.7675 45.4908 38.7665Z" fill="#FFC000"/></g></svg>